<?xml version="1.0"?>
<svg xmlns="http://www.w3.org/2000/svg" xmlns:xlink="http://www.w3.org/1999/xlink" xmlns:svgjs="http://svgjs.com/svgjs" version="1.1" width="512" height="512" x="0" y="0" viewBox="0 0 496 496" style="enable-background:new 0 0 512 512" xml:space="preserve" class=""><g>
<g xmlns="http://www.w3.org/2000/svg">
	<g>
		<g>
			<path d="M248,0C111.248,0,0,111.256,0,248s111.248,248,248,248s248-111.256,248-248S384.752,0,248,0z M248,480     C120.08,480,16,375.928,16,248S120.08,16,248,16s232,104.072,232,232S375.92,480,248,480z" fill="#ffffff" data-original="#000000" style="" class=""/>
			<path d="M248,48C137.72,48,48,137.72,48,248s89.72,200,200,200c26.072,0,51.432-4.944,75.376-14.696l-6.032-14.824     c-13.808,5.624-28.176,9.296-42.856,11.416l2.88-5.04c22.272-38.968,30.744-84.616,24.264-128.984     c8.168-9.144,14.072-20.336,16.744-32.744c28.928,24.184,50.056,56.84,60.016,93.376l4.552,16.704     c-14.448,15.536-31.712,28.728-51.368,38.768l7.28,14.248C406.176,391.832,448,323.544,448,248C448,137.72,358.28,48,248,48z      M430.08,221.616l-5.224-2.984c-38.976-22.272-84.64-30.752-128.984-24.256c-9.144-8.168-20.336-14.08-32.752-16.744     c24.184-28.92,56.84-50.048,93.368-60.016l16.48-4.496C403.136,141.088,423.936,179.008,430.08,221.616z M221.616,65.92     l-2.984,5.224c-0.96,1.672-1.888,3.36-2.808,5.064l14.112,7.552c0.832-1.568,1.704-3.128,2.584-4.68l8.512-14.904     C243.352,64.088,245.664,64,248,64c41.224,0,79.32,13.624,110.032,36.608l-5.744,1.568     c-43.304,11.816-81.568,38.088-108.336,74.032c-12.88,0.72-24.864,4.792-35.064,11.432c-2.76-30.488,2.04-61.144,14.128-89.44     l-14.72-6.288c-14.6,34.184-19.344,71.52-13.952,108.248c-8.152,9.136-14.048,20.32-16.712,32.712     c-28.928-24.184-50.056-56.84-60.016-93.376l-4.496-16.48C141.088,92.856,179.008,72.064,221.616,65.92z M64,248     c0-41.224,13.624-79.32,36.608-110.024l1.568,5.736c11.808,43.296,38.088,81.552,74.032,108.344     c0.72,12.856,4.784,24.808,11.392,35.008c-37.56,3.368-75.624-4.784-108.52-23.576l-14.904-8.528     C64.088,252.648,64,250.336,64,248z M65.92,274.384l5.224,2.984c30.512,17.44,65.12,26.496,99.992,26.496     c9.672,0,19.368-0.824,29-2.232c9.144,8.168,20.336,14.072,32.744,16.736c-24.184,28.92-56.84,50.048-93.368,60.016l-16.48,4.496     C92.864,354.912,72.064,316.992,65.92,274.384z M263.48,416.92l-8.424,14.744c-2.36,0.088-4.688,0.336-7.056,0.336     c-41.224,0-79.32-13.624-110.032-36.608l5.744-1.568c43.304-11.816,81.568-38.088,108.336-74.032     c12.856-0.72,24.816-4.784,35.008-11.4C290.424,345.976,282.272,384.032,263.48,416.92z M248,304c-30.872,0-56-25.12-56-56     s25.128-56,56-56s56,25.12,56,56S278.872,304,248,304z M393.824,352.288c-11.808-43.296-38.088-81.552-74.032-108.344     c-0.72-12.856-4.776-24.808-11.392-35c37.576-3.36,75.624,4.784,108.52,23.576l14.904,8.52c0.088,2.312,0.176,4.624,0.176,6.96     c0,40.656-13.248,78.968-36.576,110.152L393.824,352.288z" fill="#ffffff" data-original="#000000" style="" class=""/>
		</g>
	</g>
</g>
<g xmlns="http://www.w3.org/2000/svg">
</g>
<g xmlns="http://www.w3.org/2000/svg">
</g>
<g xmlns="http://www.w3.org/2000/svg">
</g>
<g xmlns="http://www.w3.org/2000/svg">
</g>
<g xmlns="http://www.w3.org/2000/svg">
</g>
<g xmlns="http://www.w3.org/2000/svg">
</g>
<g xmlns="http://www.w3.org/2000/svg">
</g>
<g xmlns="http://www.w3.org/2000/svg">
</g>
<g xmlns="http://www.w3.org/2000/svg">
</g>
<g xmlns="http://www.w3.org/2000/svg">
</g>
<g xmlns="http://www.w3.org/2000/svg">
</g>
<g xmlns="http://www.w3.org/2000/svg">
</g>
<g xmlns="http://www.w3.org/2000/svg">
</g>
<g xmlns="http://www.w3.org/2000/svg">
</g>
<g xmlns="http://www.w3.org/2000/svg">
</g>
</g></svg>
