<?xml version="1.0"?>
<svg xmlns="http://www.w3.org/2000/svg" xmlns:xlink="http://www.w3.org/1999/xlink" xmlns:svgjs="http://svgjs.com/svgjs" version="1.1" width="512" height="512" x="0" y="0" viewBox="0 0 70 70" style="enable-background:new 0 0 512 512" xml:space="preserve" class=""><g transform="matrix(-1,0,0,1,70.00658798217773,0)"><path xmlns="http://www.w3.org/2000/svg" d="m54.73 59.5c-.072 0-.144 0-.216 0a5.507 5.507 0 0 1 -3.949-1.967l-3.855-4.415a10.1 10.1 0 0 0 -10.072-3.189 21.035 21.035 0 0 1 -20.33-6.41c-7.246-7.787-7.746-19.635-1.138-26.976a18.35 18.35 0 0 1 13.312-6.036 21.545 21.545 0 0 1 15.618 6.385 21.062 21.062 0 0 1 5.82 19.748 10.511 10.511 0 0 0 3.415 10.281l4.189 3.662a5.5 5.5 0 0 1 1.961 3.942 4.708 4.708 0 0 1 -4.755 4.975zm-15.65-10.871a11.12 11.12 0 0 1 8.382 3.831l3.861 4.417a4.51 4.51 0 0 0 3.232 1.623 3.711 3.711 0 0 0 3.929-3.93 4.494 4.494 0 0 0 -1.613-3.225l-4.195-3.668a11.518 11.518 0 0 1 -3.728-11.277 20.059 20.059 0 0 0 -5.556-18.8 20.52 20.52 0 0 0 -14.883-6.092 17.351 17.351 0 0 0 -12.595 5.706c-6.265 6.958-5.769 18.214 1.126 25.624a20.027 20.027 0 0 0 19.36 6.12 11.088 11.088 0 0 1 2.68-.329z" fill="#000000" data-original="#000000" style="" class=""/><path xmlns="http://www.w3.org/2000/svg" d="m31.019 50.467a.5.5 0 0 1 -.354-.854l18.941-18.941a.5.5 0 1 1 .707.707l-18.941 18.941a.5.5 0 0 1 -.353.147z" fill="#000000" data-original="#000000" style="" class=""/><path xmlns="http://www.w3.org/2000/svg" d="m16.414 59.5a5.9 5.9 0 1 1 5.9-5.9 5.908 5.908 0 0 1 -5.9 5.9zm0-10.8a4.9 4.9 0 1 0 4.9 4.9 4.908 4.908 0 0 0 -4.9-4.9z" fill="#000000" data-original="#000000" style="" class=""/></g></svg>
